<?xml version="1.0" encoding="UTF-8" standalone="no"?>
<svg
   xmlns:dc="http://purl.org/dc/elements/1.1/"
   xmlns:cc="http://creativecommons.org/ns#"
   xmlns:rdf="http://www.w3.org/1999/02/22-rdf-syntax-ns#"
   xmlns:svg="http://www.w3.org/2000/svg"
   xmlns="http://www.w3.org/2000/svg"
   id="svg514"
   version="1.1"
   viewBox="0 0 22.967823 12.889379"
   height="12.889379mm"
   width="22.967823mm">
  <defs
     id="defs508" />
  <metadata
     id="metadata511">
    <rdf:RDF>
      <cc:Work
         rdf:about="">
        <dc:format>image/svg+xml</dc:format>
        <dc:type
           rdf:resource="http://purl.org/dc/dcmitype/StillImage" />
        <dc:title></dc:title>
      </cc:Work>
    </rdf:RDF>
  </metadata>
  <g
     transform="translate(-61.087516,-131.80546)"
     id="layer1">
    <path
       style="fill:#ffffff;fill-opacity:1;stroke:none;stroke-width:0.03001412"
       d="m 77.472644,131.82047 c -0.11706,0 -0.21025,0.0932 -0.21025,0.21026 v 0.7291 c 0,0.11705 0.0932,0.21026 0.21025,0.21026 0.11705,0 0.20997,-0.0962 0.20997,-0.21026 v -0.7291 c 0,-0.11706 -0.0929,-0.21026 -0.20997,-0.21026 z m 1.80637,0.765 c -0.0536,-3.3e-4 -0.10776,0.02 -0.14978,0.0605 l -0.51913,0.51009 c -0.0808,0.081 -0.0839,0.21625 -0.003,0.29729 0.081,0.0838 0.21325,0.0839 0.29729,0.003 l 0.51914,-0.51037 c 0.0838,-0.081 0.0839,-0.21297 0.003,-0.29701 -0.0405,-0.0419 -0.0939,-0.063 -0.14752,-0.0633 z m -3.61896,0.15006 c -0.0537,3.5e-4 -0.107,0.0214 -0.14752,0.0633 -0.081,0.084 -0.0809,0.21597 0.003,0.29701 l 0.51914,0.51037 c 0.084,0.081 0.21625,0.081 0.29729,-0.003 0.081,-0.081 0.0779,-0.21326 -0.003,-0.29729 l -0.51914,-0.5101 c -0.042,-0.0405 -0.0961,-0.0608 -0.14978,-0.0605 z m -14.533221,1.28215 v 7.57535 0.003 h 1.05353 v -3.54775 h 1.44662 v -0.7534 h -1.44662 v -2.51768 h 1.86995 v -0.75934 z m 4.00386,0.29108 c -0.11705,0 -0.209969,0.0929 -0.209969,0.20997 0,0.11706 0.0929,0.21025 0.209969,0.21025 h 10.237711 c 0.11706,0 0.21026,-0.0932 0.21026,-0.21025 0,-0.11706 -0.0932,-0.20997 -0.21026,-0.20997 z m 14.373831,0 c -0.11705,0 -0.21025,0.0929 -0.21025,0.20997 0,0.11706 0.0932,0.21025 0.21025,0.21025 h 3.796713 c 0.11705,0 0.20997,-0.0932 0.20997,-0.21025 0,-0.11706 -0.0929,-0.20997 -0.20997,-0.20997 h -3.43074 z m -1.98016,0.58526 c -1.10346,0.0446 -2.00271,0.97618 -2.0059,2.08276 -0.003,0.49032 0.16983,0.96478 0.48495,1.34036 0.40728,0.48761 0.63096,1.1046 0.63189,1.74138 -0.003,0.0184 -0.012,0.0891 0.007,0.17916 0.0107,0.0513 0.0309,0.11024 0.078,0.16137 0.0471,0.0511 0.1242,0.0865 0.206291,0.0865 h 1.362699 c 0.0828,0 0.160421,-0.0342 0.20827,-0.0856 0.0479,-0.0514 0.0678,-0.11162 0.078,-0.16334 0.017,-0.0855 0.009,-0.14992 0.005,-0.17409 v -5.3e-4 c 1.3e-4,-0.61884 0.22523,-1.23445 0.66326,-1.77982 0.671223,-0.84299 0.588893,-2.05857 -0.18708,-2.80592 -0.41072,-0.3948 -0.96476,-0.60445 -1.53169,-0.58215 z m -7.66353,0.57933 c -0.225111,-0.003 -0.44705,0.0297 -0.66015,0.0958 -0.17108,0.054 -0.330091,0.14417 -0.465151,0.26423 -0.12906,0.12306 -0.22826,0.2672 -0.297299,0.42927 -0.078,0.17709 -0.13209,0.36604 -0.1591,0.55813 -0.033,0.22811 -0.0507,0.45635 -0.0481,0.68446 v 2.13983 c 0,0.21611 0.0152,0.43519 0.0452,0.64829 0.027,0.18909 0.0808,0.37229 0.15882,0.54937 0.069,0.16208 0.16813,0.30914 0.29419,0.4352 0.132059,0.12606 0.291349,0.21918 0.46544,0.27921 0.21309,0.072 0.43815,0.10475 0.66325,0.10202 h 2.91e-4 c 0.2101,0.003 0.41713,-0.0269 0.61522,-0.0839 0.16208,-0.054 0.31226,-0.13821 0.43831,-0.24926 0.12006,-0.11104 0.2159,-0.24613 0.27893,-0.3962 0.072,-0.16508 0.12304,-0.33612 0.15006,-0.5132 0.033,-0.2071 0.048,-0.41433 0.0452,-0.62144 v -0.45017 h -0.79863 v 0.44735 c 0,0.14106 -0.003,0.26101 -0.006,0.34505 -0.003,0.084 -0.0119,0.1801 -0.0268,0.28515 -0.009,0.084 -0.0332,0.1681 -0.0692,0.24614 -0.033,0.063 -0.075,0.12306 -0.12604,0.17408 -0.054,0.057 -0.12589,0.0991 -0.20093,0.1201 -0.0961,0.027 -0.19231,0.0386 -0.29136,0.0359 -0.29413,0 -0.49805,-0.0839 -0.61211,-0.26395 -0.114061,-0.18008 -0.171261,-0.4953 -0.171261,-0.95151 v -2.39813 c 0,-0.14106 0.003,-0.26117 0.009,-0.35721 0.006,-0.10205 0.0182,-0.20107 0.0361,-0.30012 0.012,-0.09 0.0389,-0.17415 0.078,-0.25519 0.036,-0.066 0.0842,-0.12598 0.13819,-0.18001 0.06,-0.057 0.13488,-0.0991 0.21591,-0.12011 0.099,-0.027 0.20129,-0.0417 0.30634,-0.039 0.072,0 0.14405,0.006 0.21308,0.0181 0.054,0.012 0.10789,0.024 0.16192,0.045 0.048,0.018 0.09,0.0482 0.12604,0.0842 0.033,0.033 0.0631,0.0659 0.0901,0.10485 0.027,0.0391 0.0479,0.0871 0.0599,0.13508 0.018,0.06 0.03,0.11127 0.039,0.15628 0.012,0.06 0.0181,0.12281 0.0181,0.18284 0.006,0.078 0.009,0.14125 0.009,0.19528 0.003,0.051 0.003,0.12286 0.003,0.2159 v 0.42927 h 0.801173 v -0.48324 c 0,-0.57328 -0.11698,-1.00837 -0.3541,-1.30251 -0.23711,-0.29414 -0.62737,-0.44113 -1.17363,-0.44113 z m 12.218733,0 c -0.44121,0.006 -0.78937,0.12889 -1.04448,0.37501 -0.25513,0.24611 -0.38095,0.58819 -0.38095,1.0264 0,0.29714 0.048,0.54942 0.14102,0.75652 0.093,0.2041 0.24298,0.39916 0.44707,0.58526 l 1.01453,0.90346 c 0.11405,0.10805 0.20119,0.19499 0.26422,0.25802 0.072,0.075 0.13808,0.15599 0.1981,0.24303 0.069,0.093 0.11703,0.19529 0.15007,0.30634 0.03,0.11406 0.045,0.23404 0.045,0.3541 0,0.23411 -0.0599,0.40822 -0.17098,0.53128 -0.11105,0.12306 -0.27928,0.18313 -0.49538,0.18313 -0.51924,-0.003 -0.80422,-0.43538 -0.85825,-1.30278 l -0.75341,0.20432 c 0.03,0.54625 0.17994,0.9752 0.44707,1.29034 0.26713,0.31516 0.65435,0.47138 1.16459,0.47138 0.4322,0 0.7834,-0.12905 1.05352,-0.38716 0.26712,-0.25813 0.40214,-0.60932 0.40214,-1.05353 0.003,-0.34816 -0.0779,-0.65719 -0.23399,-0.93032 -0.17108,-0.28813 -0.3873,-0.54628 -0.63641,-0.76839 l -1.02329,-0.90346 c -0.12306,-0.10505 -0.22529,-0.23423 -0.30633,-0.37529 -0.06,-0.12006 -0.0899,-0.26699 -0.0899,-0.44708 0,-0.41419 0.22198,-0.63634 0.6692,-0.66637 0.10804,-0.009 0.21926,0.009 0.32131,0.048 0.084,0.033 0.1618,0.0841 0.22183,0.15317 0.063,0.075 0.1111,0.15904 0.14413,0.25208 0.039,0.099 0.0662,0.20412 0.0842,0.30916 0.015,0.10205 0.03,0.21893 0.039,0.351 l 0.7113,-0.19811 c -0.048,-0.54025 -0.19208,-0.93641 -0.4352,-1.19454 -0.24311,-0.25812 -0.60648,-0.38403 -1.08969,-0.375 z m -4.529773,0.003 c 0.82954,-0.0334 1.52856,0.61021 1.56475,1.43985 0.0137,0.36485 -0.10016,0.71637 -0.32782,0.99955 -0.47957,0.59947 -0.73118,1.28625 -0.76697,1.98441 h -0.82123 c -0.0353,-0.71596 -0.28522,-1.40483 -0.74776,-1.95869 -0.22482,-0.26923 -0.34703,-0.61107 -0.34703,-0.96452 0.003,-0.79661 0.6522,-1.46729 1.44606,-1.5006 z m -11.929921,0.0571 -1.293459,6.05977 h 0.80117 l 0.288259,-1.52773 h 1.233541 l 0.276099,1.52773 h 0.80456 l -1.29374,-6.05977 z m 6.092841,0 v 0.62426 h 1.1075 v 5.43551 h 0.846389 v -5.43551 h 1.065681 v -0.62426 z m -5.67855,1.19144 0.50727,2.73753 h -1.01453 z m 10.88911,3.97701 c -0.096,0 -0.17097,0.0779 -0.17097,0.17097 0,0.096 0.0779,0.17126 0.17097,0.17126 h 1.37456 c 0.096,0 0.17125,-0.0782 0.17125,-0.17126 0,-0.096 -0.0782,-0.17097 -0.17125,-0.17097 z m 0.25801,0.54627 c -0.096,0 -0.17098,0.0779 -0.17098,0.17097 0,0.0961 0.0779,0.17126 0.17098,0.17126 h 0.85543 c 0.096,0 0.17125,-0.0782 0.17125,-0.17126 0,-0.093 -0.0752,-0.17097 -0.17125,-0.17097 z m -15.856351,1.15244 c -0.11705,-0.006 -0.21612,0.081 -0.22212,0.1981 -0.006,0.11705 0.081,0.21612 0.1981,0.22212 v 0.003 h 22.546594 c 0.11705,-0.009 0.20117,-0.11101 0.19217,-0.22806 -0.009,-0.0931 -0.0751,-0.16805 -0.16815,-0.18906 l -0.003,-0.006 z m 2.87544,1.20359 c -0.10504,0 -0.17709,0.0272 -0.22212,0.0842 -0.045,0.057 -0.0661,0.13792 -0.0661,0.24897 v 0.39931 c 0,0.048 0.003,0.0961 0.015,0.14413 0.009,0.036 0.024,0.0718 0.0481,0.10484 0.024,0.03 0.0541,0.0542 0.0902,0.0692 0.042,0.018 0.09,0.024 0.13508,0.024 0.10205,0 0.17399,-0.0331 0.21901,-0.0901 0.045,-0.057 0.0661,-0.14103 0.0661,-0.25209 v -0.3993 c 0,-0.10806 -0.0211,-0.19195 -0.0661,-0.24897 -0.045,-0.057 -0.11396,-0.0842 -0.21901,-0.0842 z m 2.803111,0 c -0.10205,0 -0.17401,0.0272 -0.219021,0.0842 -0.045,0.057 -0.0658,0.13792 -0.0658,0.24897 v 0.39931 c 0,0.048 0.003,0.0961 0.015,0.14413 0.009,0.036 0.0237,0.0718 0.0477,0.10484 0.024,0.03 0.0541,0.0542 0.0901,0.0692 0.042,0.018 0.0901,0.024 0.13508,0.024 0.10205,0 0.16818,-0.0331 0.21619,-0.0901 0.048,-0.057 0.069,-0.14103 0.069,-0.25209 v -0.3993 c 0,-0.10806 -0.0211,-0.19195 -0.0661,-0.24897 -0.045,-0.057 -0.12008,-0.0842 -0.22213,-0.0842 z m 1.945129,0 c -0.039,-0.003 -0.0781,0.003 -0.114179,0.015 -0.06,0.018 -0.10797,0.0631 -0.131971,0.1201 -0.012,0.033 -0.0211,0.0662 -0.0271,0.0992 -0.006,0.039 -0.009,0.078 -0.009,0.11699 v 0.37219 c 0,0.039 0.003,0.0781 0.009,0.11417 0.003,0.033 0.0151,0.0658 0.0271,0.0958 0.012,0.027 0.0299,0.0542 0.0509,0.0752 0.024,0.021 0.0511,0.039 0.0811,0.048 0.036,0.012 0.0752,0.0178 0.114171,0.0178 l 5.55e-4,5.6e-4 c 0.036,0 0.0721,-0.006 0.10513,-0.0121 0.027,-0.009 0.0542,-0.024 0.0752,-0.045 0.021,-0.018 0.036,-0.0422 0.0481,-0.0692 0.015,-0.03 0.0241,-0.0598 0.0268,-0.0899 0.006,-0.036 0.009,-0.0719 0.009,-0.10796 v -0.0783 h -0.1379 v 0.0752 c 0,0.024 0.003,0.0449 0,0.0599 -0.003,0.015 -0.003,0.03 -0.006,0.0481 0,0.018 -0.006,0.03 -0.0119,0.045 -0.006,0.012 -0.0122,0.0212 -0.0212,0.0302 -0.009,0.012 -0.0238,0.0182 -0.0359,0.0209 -0.018,0.003 -0.0331,0.006 -0.0511,0.006 -0.039,0.006 -0.0808,-0.0119 -0.10484,-0.045 -0.021,-0.03 -0.0302,-0.087 -0.0302,-0.16504 v -0.41712 c 0,-0.0241 9e-5,-0.048 0.003,-0.063 0,-0.018 0.003,-0.0331 0.006,-0.0511 0.003,-0.015 0.009,-0.03 0.015,-0.045 0.006,-0.012 0.015,-0.0209 0.024,-0.03 0.012,-0.012 0.024,-0.0185 0.039,-0.0212 0.018,-0.003 0.0362,-0.006 0.0542,-0.006 0.012,0 0.0238,9e-5 0.0359,0.003 0.009,0.003 0.0209,0.006 0.03,0.009 0.009,0.003 0.0152,0.009 0.0212,0.015 0.006,0.006 0.009,0.0118 0.015,0.0178 0.003,0.006 0.006,0.015 0.009,0.024 0.003,0.009 0.003,0.0181 0.006,0.0271 0.003,0.009 0.003,0.0209 0.003,0.03 0.003,0.012 0.003,0.0241 0.003,0.0331 v 0.11107 h 0.13819 v -0.0839 c 0,-0.099 -0.021,-0.17421 -0.063,-0.22523 -0.042,-0.048 -0.10799,-0.0752 -0.20403,-0.0752 z m 9.454351,0 c -0.066,-0.003 -0.13201,0.018 -0.18002,0.063 -0.0451,0.048 -0.0689,0.11426 -0.0661,0.1803 -0.003,0.045 0.006,0.09 0.024,0.13197 0.018,0.039 0.045,0.075 0.078,0.10202 l 0.17719,0.15599 c 0.018,0.018 0.0359,0.0332 0.045,0.0452 0.015,0.012 0.0242,0.0268 0.0361,0.0418 0.009,0.018 0.0177,0.036 0.0237,0.054 0.006,0.0211 0.009,0.0392 0.009,0.0602 0.003,0.033 -0.009,0.066 -0.03,0.093 -0.024,0.021 -0.054,0.0327 -0.0871,0.03 -0.09,0 -0.14103,-0.0749 -0.15006,-0.22495 l -0.13197,0.0359 c 0,0.081 0.027,0.1622 0.078,0.22523 0.054,0.057 0.129,0.0868 0.20403,0.0808 v 2.9e-4 c 0.066,0.003 0.13211,-0.0212 0.18313,-0.0692 0.048,-0.048 0.0717,-0.11409 0.069,-0.18312 0,-0.057 -0.0148,-0.11392 -0.0418,-0.16193 -0.03,-0.051 -0.0661,-0.0961 -0.11106,-0.13509 l -0.17719,-0.15599 c -0.021,-0.0181 -0.039,-0.039 -0.054,-0.063 -0.0123,-0.024 -0.015,-0.0512 -0.015,-0.0783 0,-0.0721 0.0389,-0.11098 0.11699,-0.117 0.021,0 0.0391,0.003 0.0571,0.009 0.015,0.006 0.027,0.0151 0.039,0.0271 0.009,0.015 0.018,0.03 0.024,0.0449 0.006,0.018 0.0122,0.036 0.015,0.054 0.003,0.0211 0.006,0.0392 0.006,0.0602 l 0.12321,-0.0361 c -0.009,-0.0931 -0.0332,-0.16515 -0.0752,-0.20715 -0.042,-0.0421 -0.10501,-0.0658 -0.18905,-0.063 z m -15.523451,2.9e-4 c -0.0391,-0.003 -0.0779,0.003 -0.11389,0.015 -0.06,0.018 -0.10796,0.0628 -0.13197,0.11982 -0.012,0.033 -0.0211,0.0662 -0.0271,0.0992 -0.006,0.039 -0.009,0.078 -0.009,0.117 v 0.37218 c 0,0.039 0.003,0.0781 0.009,0.11417 0.003,0.033 0.0121,0.0658 0.0271,0.0958 0.012,0.027 0.0298,0.0542 0.0508,0.0752 0.024,0.021 0.0511,0.039 0.0811,0.048 0.036,0.012 0.0749,0.0181 0.11389,0.0181 v 2.9e-4 c 0.036,0 0.0721,-0.003 0.11417,-0.0181 0.027,-0.009 0.0541,-0.024 0.0752,-0.045 0.021,-0.018 0.0358,-0.0422 0.0477,-0.0692 0.012,-0.03 0.021,-0.0598 0.024,-0.0899 0.006,-0.036 0.009,-0.0722 0.009,-0.10824 v -0.078 h -0.13791 v 0.078 c 0,0.024 0.003,0.0452 0,0.0602 -0.003,0.015 -0.003,0.0301 -0.006,0.0481 -0.003,0.018 -0.006,0.03 -0.0119,0.045 -0.006,0.012 -0.0119,0.0209 -0.0209,0.03 -0.012,0.012 -0.0242,0.0185 -0.0361,0.0212 -0.018,0.003 -0.0329,0.006 -0.0508,0.006 -0.0391,0.006 -0.0811,-0.0119 -0.10513,-0.045 -0.021,-0.03 -0.03,-0.0873 -0.03,-0.16532 v -0.41713 -0.063 c 0,-0.015 0.003,-0.0329 0.006,-0.0509 0.003,-0.015 0.009,-0.0302 0.015,-0.0452 0.006,-0.012 0.015,-0.0209 0.024,-0.03 0.012,-0.012 0.024,-0.0182 0.039,-0.0209 0.018,-0.003 0.036,-0.006 0.054,-0.006 0.012,0 0.0242,-1.9e-4 0.0361,0.003 0.009,0.003 0.0178,0.006 0.0269,0.009 0.006,0.003 0.0152,0.009 0.0212,0.015 0.006,0.006 0.012,0.0121 0.015,0.0181 0.003,0.006 0.006,0.015 0.009,0.024 0.003,0.009 0.003,0.0178 0.006,0.0269 0.003,0.009 0.003,0.0212 0.003,0.0302 v 0.0328 0.039 0.0752 h 0.13791 v -0.0839 c 0,-0.099 -0.0179,-0.17421 -0.0599,-0.22523 -0.042,-0.048 -0.10827,-0.0749 -0.20432,-0.0749 z m 12.158821,0 c -0.10204,0 -0.17401,0.0269 -0.21901,0.0839 -0.045,0.057 -0.0661,0.13819 -0.0661,0.24925 v 0.39903 c 0,0.048 0.003,0.0961 0.015,0.14412 0.009,0.036 0.024,0.0721 0.0481,0.10513 0.024,0.03 0.0541,0.054 0.0901,0.069 0.042,0.018 0.0901,0.024 0.13508,0.024 0.10205,0 0.17118,-0.0331 0.21619,-0.0901 0.045,-0.057 0.069,-0.14103 0.069,-0.25208 v -0.39903 c 0,-0.10805 -0.0211,-0.19222 -0.0661,-0.24925 -0.045,-0.057 -0.120079,-0.0839 -0.222129,-0.0839 z m 4.09401,0 c -0.10205,0 -0.17711,0.0269 -0.22212,0.0839 -0.045,0.057 -0.0661,0.13819 -0.0661,0.24925 v 0.39903 c 0,0.048 0.006,0.0961 0.015,0.14412 0.009,0.036 0.024,0.0721 0.0481,0.10513 0.024,0.03 0.0541,0.054 0.0901,0.069 0.042,0.018 0.0901,0.024 0.13509,0.024 0.10204,0 0.174,-0.0331 0.21901,-0.0901 0.045,-0.057 0.0692,-0.14103 0.0692,-0.25208 v -0.39903 c 0,-0.10805 -0.0211,-0.19222 -0.0661,-0.24925 -0.045,-0.057 -0.120079,-0.0839 -0.222119,-0.0839 z m 3.082303,0 c -0.10205,0 -0.17711,0.0269 -0.22212,0.0839 -0.045,0.057 -0.0658,0.13819 -0.0658,0.24925 v 0.39903 c 0,0.048 0.006,0.0961 0.015,0.14412 0.009,0.036 0.024,0.0721 0.0481,0.10513 0.024,0.03 0.0538,0.054 0.0899,0.069 0.042,0.018 0.0901,0.024 0.13509,0.024 0.10204,0 0.17429,-0.0331 0.21929,-0.0901 0.045,-0.057 0.069,-0.14103 0.069,-0.25208 v -0.39903 c 0,-0.10805 -0.0211,-0.19222 -0.0661,-0.24925 -0.045,-0.057 -0.120079,-0.0839 -0.222119,-0.0839 z m 1.4647,0 c -0.066,-0.003 -0.13199,0.018 -0.18001,0.063 -0.045,0.048 -0.0689,0.11399 -0.0661,0.18002 0,0.045 0.006,0.09 0.024,0.13197 0.018,0.039 0.045,0.0723 0.078,0.1023 l 0.17719,0.156 0.045,0.045 c 0.012,0.012 0.0241,0.0271 0.0331,0.0421 0.012,0.015 0.0211,0.036 0.0271,0.054 0.006,0.021 0.009,0.0389 0.009,0.0599 0.003,0.033 -0.009,0.0662 -0.0302,0.0933 -0.024,0.021 -0.054,0.0327 -0.087,0.03 -0.09,0 -0.14103,-0.0752 -0.15005,-0.22524 l -0.13198,0.0362 c 0,0.081 0.027,0.16191 0.078,0.22494 0.054,0.057 0.129,0.0871 0.20403,0.0811 0.066,0.003 0.13211,-0.0209 0.18313,-0.069 0.048,-0.048 0.0717,-0.1141 0.069,-0.18313 0,-0.057 -0.0148,-0.11419 -0.0418,-0.16221 -0.03,-0.051 -0.0661,-0.0961 -0.11106,-0.13508 l -0.177181,-0.156 c -0.021,-0.018 -0.039,-0.039 -0.054,-0.063 -0.009,-0.024 -0.015,-0.051 -0.015,-0.078 0,-0.072 0.0389,-0.11098 0.11699,-0.117 0.021,0 0.0391,0.003 0.0571,0.009 0.015,0.006 0.03,0.0148 0.039,0.0268 0.009,0.015 0.018,0.0302 0.024,0.0452 0.006,0.018 0.0122,0.036 0.015,0.054 0.003,0.015 0.003,0.0359 0.006,0.0599 l 0.12322,-0.0359 c -0.009,-0.093 -0.0332,-0.16514 -0.0752,-0.20715 -0.042,-0.042 -0.10502,-0.0658 -0.18906,-0.063 z m -13.992584,0.003 c -0.10506,0 -0.17712,0.0272 -0.222129,0.0842 -0.045,0.057 -0.0658,0.13792 -0.0658,0.24897 v 0.39932 c 0,0.048 0.003,0.093 0.015,0.14101 0.009,0.036 0.0241,0.0718 0.0481,0.10484 0.024,0.03 0.0538,0.0542 0.0899,0.0692 0.042,0.018 0.0901,0.024 0.135089,0.024 0.10204,0 0.16817,-0.0331 0.21618,-0.0901 0.048,-0.057 0.069,-0.14103 0.069,-0.25208 v -0.39621 c 0,-0.10805 -0.0208,-0.19194 -0.0659,-0.24897 -0.045,-0.057 -0.11425,-0.0842 -0.21929,-0.0842 z m -8.34374,0.006 v 1.05353 h 0.14695 v -0.4954 h 0.20121 v -0.10484 h -0.20121 v -0.34817 h 0.26112 v -0.10512 z m 0.73815,0 -0.22496,1.05353 h 0.13791 l 0.0511,-0.26706 h 0.21308 l 0.0481,0.26706 h 0.14102 l -0.22495,-1.05353 z m 1.18267,0 v 0.10795 h 0.19217 v 0.94558 h 0.14695 v -0.94558 h 0.186231 v -0.10795 z m 1.43476,0 v 1.05353 h 0.146951 v -0.49807 h 0.114169 l 0.137911,0.49511 h 0.144119 l -0.15006,-0.52818 c 0.0871,-0.027 0.12915,-0.11108 0.12915,-0.24614 0,-0.0961 -0.0242,-0.17108 -0.0752,-0.21308 -0.051,-0.0421 -0.12895,-0.063 -0.23399,-0.063 z m 0.66919,0 0.22806,0.68135 v 0.37218 h 0.144121 v -0.37218 l 0.225239,-0.68135 h -0.13819 l -0.159109,0.50727 -0.16192,-0.50727 z m 2.1339,0 v 1.05353 h 0.147241 v -0.49512 h 0.200929 v -0.10512 h -0.200929 v -0.34817 h 0.26112 v -0.10512 z m 2.69826,0 -0.0178,1.05353 h 0.11699 l 0.009,-0.76528 0.17691,0.76528 h 0.0842 l 0.18001,-0.76528 0.0119,0.76528 h 0.120111 l -0.0178,-1.05353 h -0.14413 l -0.18905,0.85543 -0.18624,-0.85543 z m 0.906581,0 v 1.05353 h 0.14695 v -0.48918 h 0.114169 c 0.084,0 0.147161,-0.0241 0.192171,-0.0721 0.0481,-0.057 0.0719,-0.12889 0.0659,-0.20093 0,-0.096 -0.0179,-0.16517 -0.0599,-0.21619 -0.042,-0.051 -0.105049,-0.0752 -0.198099,-0.0752 z m 0.67824,0 v 0.69943 c 0,0.042 -8e-5,0.0809 0.006,0.12293 0.006,0.033 0.0151,0.0662 0.0271,0.0992 0.012,0.03 0.0301,0.057 0.0511,0.078 0.024,0.021 0.0508,0.039 0.0808,0.048 0.0391,0.012 0.0783,0.0181 0.11728,0.0181 0.039,0 0.078,-0.006 0.117,-0.0181 h -0.001 c 0.03,-0.009 0.057,-0.027 0.087,-0.048 0.021,-0.021 0.039,-0.048 0.0481,-0.078 0.012,-0.03 0.0211,-0.0662 0.0271,-0.0992 0.003,-0.042 0.006,-0.0809 0.006,-0.12293 v -0.69943 h -0.14102 v 0.70537 c 0,0.03 -0.003,0.057 -0.003,0.078 -0.003,0.0211 -0.006,0.0451 -0.0119,0.0661 -0.006,0.021 -0.012,0.039 -0.024,0.054 -0.012,0.012 -0.0271,0.0241 -0.0421,0.0331 -0.0211,0.009 -0.042,0.0121 -0.063,0.0121 -0.0211,0 -0.045,-0.003 -0.063,-0.0121 -0.018,-0.009 -0.0299,-0.0181 -0.0418,-0.0331 -0.012,-0.015 -0.0213,-0.036 -0.024,-0.054 -0.006,-0.0211 -0.009,-0.0451 -0.0121,-0.0661 -0.003,-0.021 -0.003,-0.048 -0.003,-0.078 v -0.70537 z m 0.69632,0 v 0.10824 h 0.19217 v 0.94529 h 0.14695 v -0.94529 h 0.18624 v -0.10824 z m 0.83141,0 -0.22495,1.05353 h 0.13791 l 0.0511,-0.26706 h 0.21308 l 0.0481,0.26706 h 0.14102 l -0.22523,-1.05353 z m 0.40836,0 v 0.10824 h 0.19188 v 0.94529 h 0.14723 v -0.94529 h 0.18595 v -0.10824 z m 0.67513,0 v 1.05353 h 0.14412 v -1.05353 z m 1.14367,0 v 1.05353 h 0.12293 v -0.72035 l 0.30634,0.72035 h 0.093 v -1.05353 h -0.12321 v 0.69943 l -0.30012,-0.69943 z m 0.91534,0 -0.22495,1.05353 h 0.13791 l 0.0511,-0.26706 h 0.21308 l 0.0481,0.26706 h 0.14102 l -0.22523,-1.05353 z m 0.53722,0 v 1.05353 h 0.41711 v -0.10485 h -0.26988 v -0.94868 z m 3.202413,0 v 0.69943 c 0,0.042 0.003,0.0812 0.009,0.12322 0.003,0.033 0.012,0.0659 0.024,0.0989 0.012,0.03 0.0271,0.057 0.0511,0.078 0.024,0.021 0.0511,0.039 0.0811,0.048 0.039,0.012 0.078,0.0181 0.117,0.0181 0.0388,0 0.0776,-0.006 0.11643,-0.0181 0.03,-0.009 0.06,-0.027 0.087,-0.048 0.024,-0.021 0.0391,-0.048 0.0511,-0.078 0.012,-0.03 0.0213,-0.0659 0.024,-0.0989 0.003,-0.042 0.006,-0.0812 0.006,-0.12322 v -0.69943 h -0.14101 v 0.70537 c 0,0.03 -1e-4,0.057 -0.003,0.078 -0.003,0.0211 -0.006,0.0451 -0.0119,0.0661 -0.006,0.018 -0.012,0.039 -0.024,0.054 -0.009,0.012 -0.024,0.0241 -0.039,0.0331 -0.0211,0.009 -0.042,0.0121 -0.063,0.0121 -0.0211,0 -0.0453,-0.003 -0.0633,-0.0121 -0.015,-0.009 -0.0298,-0.0181 -0.0418,-0.0331 -0.012,-0.015 -0.018,-0.036 -0.024,-0.054 -0.006,-0.0211 -0.009,-0.0451 -0.0121,-0.0661 -0.003,-0.021 -0.003,-0.048 -0.003,-0.078 v -0.70537 z m -0.567173,2.7e-4 v 1.05325 h 0.417113 v -0.10484 h -0.26988 v -0.94841 z m 1.266603,0 v 0.10796 h 0.19216 v 0.94529 h 0.14696 v -0.94529 h 0.18623 v -0.10796 z m 0.67541,0 v 1.05325 h 0.14413 v -1.05325 z m 1.14056,0 v 1.05325 h 0.12293 v -0.72034 l 0.30323,0.72034 h 0.0961 v -1.05325 h -0.12322 v 0.69916 l -0.30012,-0.69916 z m -3.576563,0.10061 c 0.0244,0 0.0485,0.004 0.0709,0.0133 0.021,0.006 0.0359,0.021 0.045,0.039 0.012,0.018 0.0182,0.0361 0.0209,0.0571 0.003,0.027 0.006,0.0541 0.006,0.0811 v 0.46205 c 0,0.027 -0.003,0.0541 -0.006,0.0811 -0.006,0.021 -0.0119,0.0422 -0.0209,0.0602 -0.012,0.018 -0.027,0.0328 -0.045,0.0418 -0.048,0.018 -0.0991,0.018 -0.14412,0 -0.018,-0.009 -0.0331,-0.0239 -0.0421,-0.0418 -0.012,-0.0181 -0.0182,-0.0392 -0.0209,-0.0602 -0.006,-0.027 -0.006,-0.0541 -0.006,-0.0811 v -0.46205 c 0,-0.027 0.003,-0.0541 0.006,-0.0811 0.003,-0.021 0.0119,-0.0391 0.0209,-0.0571 0.009,-0.018 0.0241,-0.033 0.0421,-0.039 0.024,-0.009 0.0488,-0.0133 0.0732,-0.0133 z m 3.082303,0 c 0.0244,0 0.0485,0.004 0.0709,0.0133 0.021,0.009 0.0359,0.021 0.045,0.039 0.012,0.018 0.0184,0.0361 0.0212,0.0571 0.003,0.027 0.006,0.0541 0.006,0.0811 v 0.46205 c 0,0.027 -0.003,0.0541 -0.006,0.0811 -0.006,0.021 -0.0121,0.0422 -0.0212,0.0602 -0.012,0.018 -0.027,0.0328 -0.045,0.0418 -0.048,0.018 -0.0991,0.018 -0.14413,0 -0.018,-0.009 -0.0328,-0.0239 -0.0418,-0.0418 -0.012,-0.0181 -0.0185,-0.0392 -0.0212,-0.0602 -0.006,-0.027 -0.006,-0.0541 -0.006,-0.0811 v -0.46205 c 0,-0.027 0.003,-0.0541 0.006,-0.0811 0.003,-0.021 0.0122,-0.0391 0.0212,-0.0571 0.009,-0.018 0.0238,-0.033 0.0418,-0.039 0.024,-0.009 0.0488,-0.0133 0.0732,-0.0133 z m -18.015404,0.001 c 0.024,-0.003 0.0477,0.003 0.0718,0.0121 0.018,0.006 0.0331,0.021 0.0421,0.039 0.009,0.018 0.0182,0.0361 0.0212,0.0571 0.006,0.027 0.006,0.0538 0.006,0.0808 v 0.46234 c 0,0.027 -0.003,0.0541 -0.006,0.0811 -0.006,0.0211 -0.0122,0.0419 -0.0212,0.0599 -0.009,0.018 -0.0241,0.0331 -0.0421,0.0421 -0.024,0.0123 -0.0477,0.015 -0.0718,0.015 -0.024,0 -0.051,-0.006 -0.0721,-0.015 -0.018,-0.009 -0.0331,-0.0241 -0.0421,-0.0421 -0.012,-0.0181 -0.0179,-0.0389 -0.0209,-0.0599 -0.003,-0.027 -0.006,-0.0541 -0.006,-0.0811 v -0.46234 c 0,-0.027 2.1e-4,-0.0538 0.006,-0.0808 0.006,-0.018 0.0119,-0.0391 0.0209,-0.0571 0.009,-0.018 0.0241,-0.033 0.0421,-0.039 0.024,-0.009 0.0481,-0.0121 0.0721,-0.0121 z m 0.645181,0 h 0.0661 c 0.063,0 0.10796,0.012 0.13197,0.039 0.024,0.027 0.0359,0.069 0.0359,0.13508 0,0.066 -0.0118,0.11117 -0.0418,0.13819 -0.03,0.027 -0.0752,0.039 -0.13819,0.039 h -0.054 z m 2.161029,0 c 0.024,-0.003 0.0481,0.003 0.0721,0.0121 0.018,0.006 0.0331,0.021 0.0421,0.039 0.009,0.018 0.0181,0.0361 0.0209,0.0571 0.006,0.027 0.006,0.0541 0.006,0.0811 v 0.46205 c 0,0.027 -0.003,0.0541 -0.006,0.0811 -0.006,0.0211 -0.0119,0.0419 -0.0209,0.0599 -0.009,0.018 -0.0241,0.0331 -0.0421,0.0421 -0.021,0.0123 -0.0481,0.015 -0.0721,0.015 -0.027,0 -0.0511,-0.006 -0.0721,-0.015 -0.018,-0.009 -0.0331,-0.0241 -0.0421,-0.0421 -0.009,-0.0181 -0.0151,-0.0389 -0.0178,-0.0599 -0.003,-0.027 -0.006,-0.0541 -0.006,-0.0811 v -0.46221 c 0,-0.027 -7.9e-5,-0.0541 0.006,-0.0811 0.003,-0.018 0.009,-0.0391 0.0178,-0.0571 0.009,-0.018 0.0241,-0.033 0.0421,-0.039 0.024,-0.009 0.0481,-0.0121 0.0721,-0.0121 z m 2.683281,2.9e-4 c 0.024,-0.003 0.0481,0.003 0.0721,0.0119 0.018,0.006 0.0328,0.021 0.0418,0.039 0.009,0.018 0.0184,0.0361 0.0212,0.0571 0.006,0.027 0.006,0.0541 0.006,0.0811 v 0.46205 c 0,0.027 -0.003,0.0541 -0.006,0.0811 -0.006,0.021 -0.0121,0.0419 -0.0212,0.0599 -0.009,0.018 -0.0238,0.0331 -0.0418,0.0421 -0.024,0.0123 -0.0481,0.015 -0.0721,0.015 -0.024,0 -0.0511,-0.006 -0.0721,-0.015 -0.021,-0.009 -0.0359,-0.0241 -0.045,-0.0421 -0.009,-0.018 -0.0154,-0.0389 -0.0181,-0.0599 -0.003,-0.027 -0.006,-0.0541 -0.006,-0.0811 v -0.46205 c 0,-0.027 -7.1e-5,-0.0541 0.006,-0.0811 0.003,-0.0181 0.009,-0.0391 0.0181,-0.0571 0.012,-0.018 0.027,-0.033 0.045,-0.039 0.024,-0.009 0.0481,-0.0119 0.0721,-0.0119 z m 1.56108,0 h 0.069 c 0.0241,0 0.045,9e-5 0.063,0.003 0.015,0.003 0.03,0.006 0.045,0.0119 0.012,0.006 0.0212,0.0121 0.0302,0.0212 0.009,0.012 0.0151,0.0238 0.0178,0.0359 0.006,0.015 0.009,0.0331 0.009,0.0481 0.003,0.018 0.003,0.0391 0.003,0.0661 0,0.066 -0.0121,0.10797 -0.0362,0.13198 -0.024,0.024 -0.0689,0.0362 -0.13197,0.0362 h -0.0661 -0.003 z m 3.7905,0 c 0.024,-0.003 0.0481,0.003 0.0721,0.0119 0.018,0.006 0.0328,0.021 0.0418,0.039 0.009,0.018 0.0185,0.0361 0.0212,0.0571 0.006,0.027 0.006,0.0541 0.006,0.0811 v 0.46205 c 0,0.027 -0.003,0.0541 -0.006,0.0811 -0.006,0.021 -0.0122,0.0419 -0.0212,0.0599 -0.009,0.018 -0.0238,0.0331 -0.0418,0.0421 -0.021,0.0123 -0.0481,0.015 -0.0721,0.015 -0.024,0 -0.0511,-0.006 -0.0721,-0.015 -0.018,-0.009 -0.0331,-0.0241 -0.0421,-0.0421 -0.012,-0.018 -0.0182,-0.0389 -0.0209,-0.0599 -0.006,-0.027 -0.006,-0.0541 -0.006,-0.0811 v -0.46205 c 0,-0.027 0.003,-0.0541 0.006,-0.0811 0.003,-0.0181 0.0119,-0.0391 0.0209,-0.0571 0.009,-0.018 0.0241,-0.033 0.0421,-0.039 0.024,-0.009 0.0481,-0.0119 0.0721,-0.0119 z m -12.891041,0.10174 0.0899,0.47731 h -0.17691 z m 11.231051,2.9e-4 0.0901,0.47703 h -0.17719 z m 3.14561,0 0.0901,0.47703 h -0.17719 z"
       id="path4533-1-7" />
  </g>
</svg>
