<?xml version="1.0" encoding="UTF-8" standalone="no"?>
<!-- Created with Inkscape (http://www.inkscape.org/) -->

<svg
   xmlns:dc="http://purl.org/dc/elements/1.1/"
   xmlns:cc="http://creativecommons.org/ns#"
   xmlns:rdf="http://www.w3.org/1999/02/22-rdf-syntax-ns#"
   xmlns:svg="http://www.w3.org/2000/svg"
   xmlns="http://www.w3.org/2000/svg"
   xmlns:sodipodi="http://sodipodi.sourceforge.net/DTD/sodipodi-0.dtd"
   xmlns:inkscape="http://www.inkscape.org/namespaces/inkscape"
   width="75.082253mm"
   height="26.527159mm"
   viewBox="0 0 266.03948 93.99387"
   id="svg2"
   version="1.1"
   inkscape:version="0.91 r13725"
   sodipodi:docname="impa2.svg">
  <defs
     id="defs4" />
  <sodipodi:namedview
     id="base"
     pagecolor="#ffffff"
     bordercolor="#666666"
     borderopacity="1.0"
     inkscape:pageopacity="0.0"
     inkscape:pageshadow="2"
     inkscape:zoom="0.98994949"
     inkscape:cx="43.458414"
     inkscape:cy="28.568171"
     inkscape:document-units="px"
     inkscape:current-layer="layer1"
     showgrid="false"
     inkscape:window-width="1366"
     inkscape:window-height="710"
     inkscape:window-x="0"
     inkscape:window-y="0"
     inkscape:window-maximized="1"
     fit-margin-top="2"
     fit-margin-left="2"
     fit-margin-right="2"
     fit-margin-bottom="2" />
  <metadata
     id="metadata7">
    <rdf:RDF>
      <cc:Work
         rdf:about="">
        <dc:format>image/svg+xml</dc:format>
        <dc:type
           rdf:resource="http://purl.org/dc/dcmitype/StillImage" />
        <dc:title></dc:title>
      </cc:Work>
    </rdf:RDF>
  </metadata>
  <g
     inkscape:label="Camada 1"
     inkscape:groupmode="layer"
     id="layer1"
     transform="translate(-116.48794,-538.6748)">
    <g
       id="g3383"
       transform="translate(-407.14285,-208.57143)">
      <g
         transform="translate(220.64246,270.43399)"
         id="g3361">
        <path
           style="fill:#ffffff;fill-opacity:1;stroke:none;stroke-width:1px;stroke-linecap:butt;stroke-linejoin:miter;stroke-opacity:1"
           d="m 311.05607,560.91751 c -0.32408,-11.44458 2.39935,-23.62156 3.61423,-32.09479 0.31715,-2.2968 0.48539,-2.40802 1.6298,-1.07747 0.44928,0.52234 1.49871,1.28051 2.33209,1.68483 11.83327,2.76909 19.2041,3.93754 33.33503,0.0684 10.85401,-2.96894 20.43956,-6.05853 30.30458,-7.25498 9.24714,-0.98403 12.41611,-1.33071 15.15229,-1.65764 l 3.03046,-0.36208 c -6.67742,3.48631 -12.86928,8.72032 -17.95004,13.04877 -1.23915,1.03511 -2.70758,2.32456 -3.26317,2.86545 -2.60878,2.53977 -16.93929,13.36217 -17.69356,13.36217 -0.16895,0 -1.25727,0.6825 -2.41849,1.51667 -1.97309,1.41739 -13.69829,7.73918 -16.50598,8.89941 -9.13447,4.29112 -23.70037,5.39128 -31.56724,1.00127 z"
           id="path3349"
           inkscape:connector-curvature="0"
           sodipodi:nodetypes="ccccccsccssscc" />
        <path
           style="fill:#ffffff;fill-opacity:1;stroke:none;stroke-width:1px;stroke-linecap:butt;stroke-linejoin:miter;stroke-opacity:1"
           d="m 360.38061,556.66556 c -1.95792,-0.61718 -2.25944,-1.47394 1.09722,-3.93791 12.94548,-8.60864 13.00397,-8.55547 23.49871,-17.59496 7.09816,2.33139 23.79878,7.08281 36.57386,4.52602 7.96308,-2.3484 7.90113,-2.37223 12.68372,-4.84974 0.75869,0.14395 1.07765,0.75767 1.20605,2.32072 -0.87414,5.82211 -2.12812,10.64481 -5.38635,15.02062 -5.36539,5.07272 -5.80918,6.57893 -21.1214,10.13848 -22.43813,1.48621 -34.50762,-0.88752 -48.55181,-5.62323 z"
           id="path3351"
           inkscape:connector-curvature="0"
           sodipodi:nodetypes="ccccccccc" />
        <path
           style="fill:#ffffff;fill-opacity:1;stroke:none;stroke-width:1px;stroke-linecap:butt;stroke-linejoin:miter;stroke-opacity:1"
           d="m 317.49296,521.1298 c 8.73351,-7.00787 23.75333,-4.79391 33.71667,-2.57921 3.24482,0.75426 8.48059,2.48484 10.9799,3.62917 1.17759,0.53917 2.38707,0.98031 2.68773,0.98031 0.30066,0 0.20573,0.34093 -0.21095,0.75762 -4.82115,3.45334 -53.50917,9.48465 -47.17335,-2.78789 z"
           id="path3353"
           inkscape:connector-curvature="0"
           sodipodi:nodetypes="ccsscc" />
        <path
           style="fill:#ffffff;fill-opacity:1;stroke:none;stroke-width:1px;stroke-linecap:butt;stroke-linejoin:miter;stroke-opacity:1"
           d="m 431.60094,554.08972 c 2.41475,-4.83452 4.8709,-10.62629 4.96658,-15.58824 -0.17684,-6.90475 -5.20445,-14.48366 -10.85914,-17.47446 -12.60504,-5.02345 -23.90029,-2.3632 -35.22907,-1.11565 -1.58038,-0.03 -1.53807,-0.0819 1.13642,-1.38981 15.65087,-7.21612 19.87907,-10.97094 31.98104,-15.07576 16.49637,-4.80614 24.24164,-2.31818 31.00049,12.53534 1.48336,4.9968 0.87773,12.47184 -0.32432,15.56073 -2.71673,6.98121 -6.93208,12.54963 -12.58282,16.62171 -2.57037,2.04146 -8.32963,5.9979 -10.08918,5.92611 z"
           id="path3355"
           inkscape:connector-curvature="0"
           sodipodi:nodetypes="cccccccsccc" />
      </g>
      <text
         transform="scale(0.95211871,1.0502892)"
         sodipodi:linespacing="125%"
         id="text3367"
         y="737.836"
         x="555.23779"
         style="font-style:normal;font-weight:normal;font-size:25.8258419px;line-height:125%;font-family:sans-serif;letter-spacing:0px;word-spacing:0px;fill:#ffffff;fill-opacity:1;stroke:none;stroke-width:1px;stroke-linecap:butt;stroke-linejoin:miter;stroke-opacity:1"
         xml:space="preserve"><tspan
           style="font-weight:bold;fill:#ffffff;fill-opacity:1"
           y="737.836"
           x="555.23779"
           id="tspan3369"
           sodipodi:role="line">impa</tspan></text>
      <text
         transform="scale(0.82158251,1.2171632)"
         sodipodi:linespacing="125%"
         id="text3371"
         y="658.84631"
         x="842.29596"
         style="font-style:normal;font-weight:normal;font-size:11.63174343px;line-height:125%;font-family:sans-serif;letter-spacing:0px;word-spacing:0px;fill:#ffffff;fill-opacity:1;stroke:none;stroke-width:1px;stroke-linecap:butt;stroke-linejoin:miter;stroke-opacity:1"
         xml:space="preserve"><tspan
           style="font-weight:bold;fill:#ffffff;fill-opacity:1"
           y="658.84631"
           x="842.29596"
           id="tspan3373"
           sodipodi:role="line">Instituto de</tspan></text>
      <text
         transform="scale(0.88799782,1.1261289)"
         sodipodi:linespacing="125%"
         id="text3375"
         y="723.97516"
         x="779.24359"
         style="font-style:normal;font-weight:normal;font-size:11.36308384px;line-height:125%;font-family:sans-serif;letter-spacing:0px;word-spacing:0px;fill:#ffffff;fill-opacity:1;stroke:none;stroke-width:1px;stroke-linecap:butt;stroke-linejoin:miter;stroke-opacity:1"
         xml:space="preserve"><tspan
           style="font-weight:bold;fill:#ffffff;fill-opacity:1"
           y="723.97516"
           x="779.24359"
           id="tspan3377"
           sodipodi:role="line">Matemática</tspan></text>
      <text
         transform="scale(0.89753579,1.1141617)"
         sodipodi:linespacing="125%"
         id="text3379"
         y="743.76154"
         x="770.93506"
         style="font-style:normal;font-weight:normal;font-size:11.54361248px;line-height:125%;font-family:sans-serif;letter-spacing:0px;word-spacing:0px;fill:#ffffff;fill-opacity:1;stroke:none;stroke-width:1px;stroke-linecap:butt;stroke-linejoin:miter;stroke-opacity:1"
         xml:space="preserve"><tspan
           style="font-weight:bold;fill:#ffffff;fill-opacity:1"
           y="743.76154"
           x="770.93506"
           id="tspan3381"
           sodipodi:role="line">Pura e Aplicada</tspan></text>
    </g>
  </g>
</svg>
